HIERARCHY
ROOT Hips
{
	OFFSET 0.000000 0.000000 0.000000
	CHANNELS 6 Xposition Yposition Zposition Xrotation Yrotation Zrotation
	JOINT LeftUpLeg_virtual
	{
		OFFSET 0.000000 0.000000 0.000000
		CHANNELS 3 Xrotation Yrotation Zrotation
		JOINT LeftUpLeg
		{
			OFFSET 13.026900 -6.336304 -1.092800
			CHANNELS 3 Xrotation Yrotation Zrotation
			JOINT LeftLeg
			{
				OFFSET 0.524474 -46.096886 9.782700
				CHANNELS 3 Xrotation Yrotation Zrotation
				JOINT LeftFoot
				{
					OFFSET -0.524474 -53.427422 -12.948200
					CHANNELS 3 Xrotation Yrotation Zrotation
					JOINT LeftToeBase
					{
						OFFSET 0.192200 -14.009700 16.364100
						CHANNELS 3 Xrotation Yrotation Zrotation
						JOINT LeftToe_End
						{
							OFFSET -1.784700 -0.561700 9.474800
							CHANNELS 3 Xrotation Yrotation Zrotation
							End Site
							{
								OFFSET 0 0 0
							}
						}
					}
				}
			}
		}
	}
	JOINT RightUpLeg_virtual
	{
		OFFSET 0.000000 0.000000 0.000000
		CHANNELS 3 Xrotation Yrotation Zrotation
		JOINT RightUpLeg
		{
			OFFSET -12.883000 -6.336304 -1.092800
			CHANNELS 3 Xrotation Yrotation Zrotation
			JOINT RightLeg
			{
				OFFSET -0.524587 -46.096825 9.782800
				CHANNELS 3 Xrotation Yrotation Zrotation
				JOINT RightFoot
				{
					OFFSET 0.524587 -53.427383 -12.948300
					CHANNELS 3 Xrotation Yrotation Zrotation
					JOINT RightToeBase
					{
						OFFSET -0.192200 -14.009700 16.364100
						CHANNELS 3 Xrotation Yrotation Zrotation
						JOINT RightToe_End
						{
							OFFSET 1.784700 -0.561700 9.474800
							CHANNELS 3 Xrotation Yrotation Zrotation
							End Site
							{
								OFFSET 0 0 0
							}
						}
					}
				}
			}
		}
	}
	JOINT Spine_virtual
	{
		OFFSET 0.000000 0.000000 0.000000
		CHANNELS 3 Xrotation Yrotation Zrotation
		JOINT Spine
		{
			OFFSET 0.072000 7.257294 -0.789700
			CHANNELS 3 Xrotation Yrotation Zrotation
			JOINT Spine1
			{
				OFFSET 0.000000 12.508769 -0.658067
				CHANNELS 3 Xrotation Yrotation Zrotation
				JOINT Spine1_split
				{
					OFFSET 0.000000 12.508769 -0.658067
					CHANNELS 3 Xrotation Yrotation Zrotation
					JOINT Spine2
					{
						OFFSET 0.000000 12.508769 -0.658067
						CHANNELS 3 Xrotation Yrotation Zrotation
						JOINT Neck_virtual
						{
							OFFSET 0.000000 0.000000 0.000000
							CHANNELS 3 Xrotation Yrotation Zrotation
							JOINT Neck
							{
								OFFSET 0.000000 14.033295 7.520400
								CHANNELS 3 Xrotation Yrotation Zrotation
								JOINT Head
								{
									OFFSET 0.000000 8.198502 5.703100
									CHANNELS 3 Xrotation Yrotation Zrotation
									JOINT HeadTop_End
									{
										OFFSET 0.000000 17.760803 13.332701
										CHANNELS 3 Xrotation Yrotation Zrotation
										End Site
										{
											OFFSET 0 0 0
										}
									}
								}
							}
						}
						JOINT LeftShoulder_virtual
						{
							OFFSET 0.000000 0.000000 0.000000
							CHANNELS 3 Xrotation Yrotation Zrotation
							JOINT LeftShoulder
							{
								OFFSET 6.292450 5.785301 -0.669000
								CHANNELS 3 Xrotation Yrotation Zrotation
								JOINT LeftShoulder_split
								{
									OFFSET 6.292450 5.785301 -0.669000
									CHANNELS 3 Xrotation Yrotation Zrotation
									JOINT LeftArm
									{
										OFFSET 13.907140 -6.093903 1.965100
										CHANNELS 3 Xrotation Yrotation Zrotation
										JOINT LeftForeArm
										{
											OFFSET 34.140198 0.000000 0.000000
											CHANNELS 3 Xrotation Yrotation Zrotation
											JOINT LeftHand
											{
												OFFSET 40.960209 0.000000 0.000000
												CHANNELS 3 Xrotation Yrotation Zrotation
												End Site
												{
													OFFSET 0 0 0
												}
											}
										}
									}
								}
							}
						}
						JOINT RightShoulder_virtual
						{
							OFFSET 0.000000 0.000000 0.000000
							CHANNELS 3 Xrotation Yrotation Zrotation
							JOINT RightShoulder
							{
								OFFSET -6.292450 5.785301 -0.669000
								CHANNELS 3 Xrotation Yrotation Zrotation
								JOINT RightShoulder_split
								{
									OFFSET -6.292450 5.785301 -0.669000
									CHANNELS 3 Xrotation Yrotation Zrotation
									JOINT RightArm
									{
										OFFSET -13.907140 -6.093903 1.965100
										CHANNELS 3 Xrotation Yrotation Zrotation
										JOINT RightForeArm
										{
											OFFSET -34.140198 0.000000 0.000000
											CHANNELS 3 Xrotation Yrotation Zrotation
											JOINT RightHand
											{
												OFFSET -40.960209 0.000000 0.000000
												CHANNELS 3 Xrotation Yrotation Zrotation
												End Site
												{
													OFFSET 0 0 0
												}
											}
										}
									}
								}
							}
						}
					}
				}
			}
		}
	}
}
MOTION
Frames: 4
Frame Time: 0.03333333
-27.831888 119.537239 -17.278507 0.000000 0.000000 0.000000 -173.695781 -52.503562 -168.229731 -103.950678 -19.165130 3.063692 80.443946 5.445946 -29.094591 44.029288 -9.129958 -15.007348 -3.733545 -0.009266 -0.729552 0.000000 0.000000 0.000000 -174.292726 -49.386239 -169.243946 -30.177599 33.646229 6.002846 38.381579 8.241866 -4.285185 1.652563 14.423949 2.168780 -2.225741 0.964810 2.114869 0.000000 0.000000 0.000000 -170.861663 -52.369656 -164.380783 18.650497 2.902677 0.624701 7.076718 0.091530 -0.029121 0.892061 -2.722589 0.841122 0.000000 0.000000 0.000000 10.554650 0.288532 -0.656080 4.683378 38.498672 5.780903 9.448285 47.425432 -31.377595 0.000000 0.000000 0.000000 9.620712 -0.206321 -0.518448 -2.507921 -13.068650 11.144418 3.168879 0.745278 -1.784050 -55.507708 -48.227675 -41.579012 -96.453555 -26.327927 -90.597425 0.000000 0.000000 0.000000 8.023622 -0.322098 -0.562498 -4.079268 20.458672 4.249732 4.081455 -1.736642 3.919361 -54.632303 15.175135 25.619423 128.576071 41.616104 -124.024720 0.000000 0.000000 0.000000 
-30.143278 121.025017 -19.341343 0.000000 0.000000 0.000000 -172.450337 -49.362945 -166.144434 -108.773973 -16.473749 4.760753 78.241463 3.780032 -27.688176 42.540447 -12.555897 -18.969056 -8.335962 -0.179219 0.462217 0.000000 0.000000 0.000000 -173.359463 -44.802899 -167.456007 -27.287444 35.574893 5.738328 37.958425 8.277369 -4.018532 0.593850 15.363145 1.254131 -3.996563 0.921666 2.111949 0.000000 0.000000 0.000000 -170.876129 -49.024902 -164.075597 19.320102 3.589169 0.667020 7.601705 0.351633 -0.369703 0.603793 -2.599012 0.883995 0.000000 0.000000 0.000000 11.207517 0.501210 -1.133516 6.071887 38.917998 5.138711 8.707789 48.409471 -31.695056 0.000000 0.000000 0.000000 10.318078 0.018328 -0.832444 -1.996399 -12.666292 15.743301 3.300995 0.156935 -1.722340 -66.670699 -45.027407 -47.006509 -95.973945 -27.871758 -90.366210 0.000000 0.000000 0.000000 8.574197 -0.181241 -0.945601 -3.034429 21.071830 0.152491 4.351089 -1.964813 3.909278 -61.616906 14.078310 25.005070 130.435071 41.259820 -126.645108 0.000000 0.000000 0.000000 
-31.992701 122.494225 -21.146374 0.000000 0.000000 0.000000 -171.359146 -46.803977 -163.987009 -113.249072 -15.068608 5.925639 78.100672 1.099021 -26.219457 42.356943 -15.824729 -21.713579 -11.265763 -0.438238 1.580044 0.000000 0.000000 0.000000 -172.724679 -41.225697 -165.931045 -23.980497 37.202353 4.694299 37.402823 8.177273 -3.563840 -0.255884 15.994742 0.703079 -5.747464 0.861410 2.145683 0.000000 0.000000 0.000000 -170.816215 -46.295251 -163.519305 19.853314 4.112795 0.701646 8.011886 0.494381 -0.695351 0.489130 -2.633395 0.973917 0.000000 0.000000 0.000000 11.719438 0.591596 -1.567877 7.501565 39.249972 4.268145 8.089679 49.247921 -32.115638 0.000000 0.000000 0.000000 10.906775 0.134721 -1.134566 -1.552798 -12.324488 20.213786 3.682325 -0.321894 -1.737923 -75.163022 -41.156493 -51.107884 -95.476516 -29.339282 -89.940354 0.000000 0.000000 0.000000 8.990796 -0.140531 -1.291084 -1.948603 21.564272 -4.012522 4.634997 -2.285713 3.759694 -67.610629 12.267206 23.343631 132.203530 41.337801 -129.007343 0.000000 0.000000 0.000000 
-33.326370 123.551102 -22.531788 0.000000 0.000000 0.000000 -170.474377 -45.067203 -161.983277 -116.558326 -14.564374 6.099576 78.928170 -0.576061 -25.417007 42.109195 -16.701148 -22.662725 -10.806541 -0.485221 1.967371 0.000000 0.000000 0.000000 -172.336191 -38.776036 -164.591822 -20.765643 38.484598 3.064382 37.006334 8.038638 -2.934210 -1.048467 16.308508 0.600349 -7.001411 0.812835 2.180158 0.000000 0.000000 0.000000 -170.599493 -44.298264 -162.490050 20.302360 4.463314 0.673592 8.308528 0.509882 -0.971051 0.344355 -2.800139 0.951146 0.000000 0.000000 0.000000 12.097666 0.572386 -1.921450 8.950351 39.483876 3.179560 7.531450 49.938583 -32.557309 0.000000 0.000000 0.000000 11.349818 0.150617 -1.382228 -1.160769 -12.130285 24.421654 4.201424 -0.784828 -1.834486 -81.252231 -37.431107 -53.766624 -95.154391 -30.790961 -89.628119 0.000000 0.000000 0.000000 9.235441 -0.175126 -1.574380 -0.885904 21.990690 -7.907733 4.953794 -2.502440 3.725443 -72.615976 9.790147 20.721508 134.164532 41.605093 -131.368430 0.000000 0.000000 0.000000 
